Rubik-BlackItalic.ufo
<glyph name="J" format="1">
  <advance width="698"/>
  <unicode hex="004A"/>
  <outline>
    <contour>
      <point x="730" y="673" type="line" smooth="yes" name="hr00"/>
      <point x="733" y="688"/>
      <point x="723" y="700"/>
      <point x="708" y="700" type="curve" smooth="yes"/>
      <point x="179" y="700" type="line" smooth="yes"/>
      <point x="164" y="700"/>
      <point x="150" y="688"/>
      <point x="147" y="673" type="curve" smooth="yes"/>
      <point x="115" y="524" type="line" smooth="yes"/>
      <point x="112" y="509"/>
      <point x="121" y="497"/>
      <point x="136" y="497" type="curve" smooth="yes"/>
      <point x="433" y="497" type="line"/>
      <point x="384" y="266" type="line" smooth="yes"/>
      <point x="371" y="205"/>
      <point x="344" y="185"/>
      <point x="308" y="185" type="curve" smooth="yes"/>
      <point x="275" y="185"/>
      <point x="266" y="198"/>
      <point x="258" y="225" type="curve" smooth="yes"/>
      <point x="253" y="247"/>
      <point x="246" y="257"/>
      <point x="224" y="257" type="curve" smooth="yes"/>
      <point x="20" y="257" type="line" smooth="yes"/>
      <point x="8" y="257"/>
      <point x="-4" y="247"/>
      <point x="-7" y="235" type="curve" smooth="yes"/>
      <point x="-37" y="78"/>
      <point x="143" y="-10"/>
      <point x="288" y="-10" type="curve" smooth="yes"/>
      <point x="490" y="-10"/>
      <point x="602" y="73"/>
      <point x="641" y="258" type="curve" smooth="yes"/>
    </contour>
  </outline>
</glyph>
<glyph name="backslash" format="1">
  <advance width="563"/>
  <unicode hex="005C"/>
  <outline>
    <contour>
      <point x="466" y="-53" type="line" smooth="yes" name="hr00"/>
      <point x="469" y="-68"/>
      <point x="458" y="-84"/>
      <point x="440" y="-84" type="curve" smooth="yes"/>
      <point x="324" y="-84" type="line" smooth="yes"/>
      <point x="297" y="-84"/>
      <point x="288" y="-67"/>
      <point x="286" y="-54" type="curve"/>
      <point x="120" y="755" type="line" smooth="yes"/>
      <point x="117" y="771"/>
      <point x="128" y="786"/>
      <point x="147" y="786" type="curve" smooth="yes"/>
      <point x="266" y="786" type="line" smooth="yes"/>
      <point x="291" y="786"/>
      <point x="300" y="770"/>
      <point x="303" y="756" type="curve" smooth="yes"/>
    </contour>
  </outline>
</glyph>
<glyph name="e" format="1">
  <advance width="621"/>
  <unicode hex="0065"/>
  <outline>
    <contour>
      <point x="549" y="201" type="line" smooth="yes"/>
      <point x="564" y="201"/>
      <point x="579" y="213"/>
      <point x="582" y="228" type="curve" smooth="yes"/>
      <point x="588" y="258" type="line" smooth="yes"/>
      <point x="618" y="406"/>
      <point x="537" y="530"/>
      <point x="351" y="530" type="curve" smooth="yes"/>
      <point x="168" y="530"/>
      <point x="56" y="435"/>
      <point x="19" y="259" type="curve" smooth="yes"/>
      <point x="-21" y="72"/>
      <point x="92" y="-10"/>
      <point x="257" y="-10" type="curve" smooth="yes"/>
      <point x="452" y="-10"/>
      <point x="537" y="94"/>
      <point x="551" y="145" type="curve" smooth="yes"/>
      <point x="555" y="158"/>
      <point x="547" y="167"/>
      <point x="534" y="167" type="curve" smooth="yes"/>
      <point x="345" y="167" type="line" smooth="yes"/>
      <point x="329" y="167"/>
      <point x="324" y="165"/>
      <point x="309" y="153" type="curve" smooth="yes"/>
      <point x="296" y="142"/>
      <point x="288" y="135"/>
      <point x="276" y="135" type="curve" smooth="yes" name="hr01"/>
      <point x="247" y="135"/>
      <point x="242" y="156"/>
      <point x="250" y="196" type="curve" smooth="yes"/>
      <point x="251" y="201" type="line"/>
    </contour>
    <contour>
      <point x="331" y="390" type="curve" smooth="yes"/>
      <point x="357" y="390"/>
      <point x="367" y="371"/>
      <point x="358" y="326" type="curve"/>
      <point x="278" y="326" type="line"/>
      <point x="287" y="371"/>
      <point x="305" y="390"/>
    </contour>
  </outline>
</glyph>
<glyph name="n" format="1">
  <advance width="674"/>
  <unicode hex="006E"/>
  <outline>
    <contour>
      <point x="636" y="303" type="line" smooth="yes"/>
      <point x="669" y="461"/>
      <point x="591" y="530"/>
      <point x="480" y="530" type="curve" smooth="yes"/>
      <point x="409" y="530"/>
      <point x="351" y="499"/>
      <point x="309" y="460" type="curve"/>
      <point x="316" y="493" type="line" smooth="yes"/>
      <point x="319" y="508"/>
      <point x="310" y="520"/>
      <point x="295" y="520" type="curve" smooth="yes" name="hr01"/>
      <point x="120" y="520" type="line" smooth="yes"/>
      <point x="105" y="520"/>
      <point x="90" y="508"/>
      <point x="87" y="493" type="curve" smooth="yes"/>
      <point x="-12" y="27" type="line" smooth="yes"/>
      <point x="-15" y="12"/>
      <point x="-5" y="0"/>
      <point x="10" y="0" type="curve" smooth="yes"/>
      <point x="200" y="0" type="line" smooth="yes"/>
      <point x="215" y="0"/>
      <point x="229" y="12"/>
      <point x="232" y="27" type="curve" smooth="yes"/>
      <point x="289" y="296" type="line" smooth="yes"/>
      <point x="297" y="332"/>
      <point x="319" y="351"/>
      <point x="351" y="351" type="curve" smooth="yes" name="hr02"/>
      <point x="383" y="351"/>
      <point x="397" y="332"/>
      <point x="389" y="296" type="curve" smooth="yes"/>
      <point x="332" y="27" type="line" smooth="yes"/>
      <point x="329" y="12"/>
      <point x="339" y="0"/>
      <point x="354" y="0" type="curve" smooth="yes"/>
      <point x="545" y="0" type="line" smooth="yes"/>
      <point x="560" y="0"/>
      <point x="574" y="12"/>
      <point x="577" y="27" type="curve" smooth="yes"/>
    </contour>
  </outline>
</glyph>
<glyph name="degree" format="1">
  <advance width="429"/>
  <unicode hex="00B0"/>
  <outline>
    <contour>
      <point x="185" y="519" type="curve" smooth="yes" name="hr00"/>
      <point x="194" y="564"/>
      <point x="232" y="595"/>
      <point x="277" y="595" type="curve" smooth="yes"/>
      <point x="322" y="595"/>
      <point x="346" y="564"/>
      <point x="337" y="519" type="curve" smooth="yes"/>
      <point x="327" y="474"/>
      <point x="290" y="443"/>
      <point x="245" y="443" type="curve" smooth="yes"/>
      <point x="200" y="443"/>
      <point x="175" y="474"/>
    </contour>
    <contour>
      <point x="65" y="519" type="curve" smooth="yes"/>
      <point x="42" y="411"/>
      <point x="112" y="328"/>
      <point x="220" y="328" type="curve" smooth="yes"/>
      <point x="328" y="328"/>
      <point x="434" y="411"/>
      <point x="457" y="519" type="curve" smooth="yes"/>
      <point x="480" y="627"/>
      <point x="409" y="710"/>
      <point x="301" y="710" type="curve" smooth="yes"/>
      <point x="193" y="710"/>
      <point x="88" y="627"/>
    </contour>
  </outline>
</glyph>
<glyph name="plusminus" format="1">
  <advance width="575"/>
  <unicode hex="00B1"/>
  <outline>
    <contour>
      <point x="48" y="163" type="line" smooth="yes" name="hr00"/>
      <point x="33" y="163"/>
      <point x="19" y="151"/>
      <point x="15" y="136" type="curve" smooth="yes"/>
      <point x="-8" y="27" type="line" smooth="yes"/>
      <point x="-11" y="12"/>
      <point x="-1" y="0"/>
      <point x="14" y="0" type="curve" smooth="yes"/>
      <point x="438" y="0" type="line" smooth="yes"/>
      <point x="453" y="0"/>
      <point x="467" y="12"/>
      <point x="470" y="27" type="curve" smooth="yes"/>
      <point x="493" y="136" type="line" smooth="yes"/>
      <point x="497" y="151"/>
      <point x="487" y="163"/>
      <point x="472" y="163" type="curve" smooth="yes"/>
    </contour>
    <contour>
      <point x="184" y="213" type="line" smooth="yes"/>
      <point x="181" y="198"/>
      <point x="190" y="186"/>
      <point x="205" y="186" type="curve" smooth="yes"/>
      <point x="327" y="186" type="line" smooth="yes"/>
      <point x="342" y="186"/>
      <point x="357" y="198"/>
      <point x="360" y="213" type="curve" smooth="yes"/>
      <point x="390" y="354" type="line"/>
      <point x="523" y="354" type="line" smooth="yes"/>
      <point x="538" y="354"/>
      <point x="552" y="366"/>
      <point x="555" y="381" type="curve" smooth="yes"/>
      <point x="579" y="490" type="line" smooth="yes"/>
      <point x="582" y="505"/>
      <point x="572" y="517"/>
      <point x="557" y="517" type="curve" smooth="yes"/>
      <point x="424" y="517" type="line"/>
      <point x="453" y="653" type="line" smooth="yes"/>
      <point x="456" y="668"/>
      <point x="447" y="680"/>
      <point x="432" y="680" type="curve" smooth="yes"/>
      <point x="310" y="680" type="line" smooth="yes"/>
      <point x="295" y="680"/>
      <point x="280" y="668"/>
      <point x="277" y="653" type="curve" smooth="yes"/>
      <point x="248" y="517" type="line"/>
      <point x="113" y="517" type="line" smooth="yes"/>
      <point x="98" y="517"/>
      <point x="84" y="505"/>
      <point x="81" y="490" type="curve" smooth="yes"/>
      <point x="57" y="381" type="line" smooth="yes"/>
      <point x="54" y="366"/>
      <point x="64" y="354"/>
      <point x="79" y="354" type="curve" smooth="yes"/>
      <point x="214" y="354" type="line"/>
    </contour>
  </outline>
</glyph>
<glyph name="lslash" format="1">
  <advance width="394"/>
  <unicode hex="0142"/>
  <outline>
    <contour>
      <point x="59" y="377" type="line" smooth="yes" name="hr00"/>
      <point x="41" y="371"/>
      <point x="33" y="362"/>
      <point x="30" y="344" type="curve" smooth="yes"/>
      <point x="7" y="236" type="line" smooth="yes"/>
      <point x="4" y="224"/>
      <point x="11" y="215"/>
      <point x="23" y="215" type="curve" smooth="yes"/>
      <point x="25" y="215"/>
      <point x="29" y="216"/>
      <point x="35" y="218" type="curve" smooth="yes"/>
      <point x="65" y="229" type="line"/>
      <point x="22" y="27" type="line" smooth="yes"/>
      <point x="19" y="12"/>
      <point x="29" y="0"/>
      <point x="44" y="0" type="curve" smooth="yes"/>
      <point x="223" y="0" type="line" smooth="yes"/>
      <point x="238" y="0"/>
      <point x="252" y="12"/>
      <point x="255" y="27" type="curve" smooth="yes"/>
      <point x="317" y="319" type="line"/>
      <point x="358" y="334" type="line" smooth="yes"/>
      <point x="376" y="340"/>
      <point x="384" y="349"/>
      <point x="388" y="367" type="curve" smooth="yes"/>
      <point x="410" y="475" type="line" smooth="yes"/>
      <point x="413" y="487"/>
      <point x="406" y="496"/>
      <point x="394" y="496" type="curve" smooth="yes"/>
      <point x="392" y="496"/>
      <point x="388" y="495"/>
      <point x="382" y="493" type="curve" smooth="yes"/>
      <point x="352" y="482" type="line"/>
      <point x="395" y="683" type="line" smooth="yes"/>
      <point x="398" y="698"/>
      <point x="388" y="710"/>
      <point x="373" y="710" type="curve" smooth="yes"/>
      <point x="194" y="710" type="line" smooth="yes"/>
      <point x="179" y="710"/>
      <point x="165" y="698"/>
      <point x="162" y="683" type="curve" smooth="yes"/>
      <point x="100" y="391" type="line"/>
    </contour>
  </outline>
</glyph>
<glyph name="breve" format="1">
  <advance width="379"/>
  <unicode hex="02D8"/>
  <outline>
    <contour>
      <point x="246" y="746" type="curve" smooth="yes"/>
      <point x="240" y="716"/>
      <point x="224" y="691"/>
      <point x="194" y="691" type="curve" smooth="yes"/>
      <point x="164" y="691"/>
      <point x="160" y="716"/>
      <point x="166" y="746" type="curve" smooth="yes"/>
      <point x="168" y="756"/>
      <point x="163" y="765"/>
      <point x="151" y="765" type="curve" smooth="yes" name="hr01"/>
      <point x="57" y="765" type="line" smooth="yes"/>
      <point x="45" y="765"/>
      <point x="36" y="756"/>
      <point x="34" y="746" type="curve" smooth="yes"/>
      <point x="15" y="656"/>
      <point x="83" y="590"/>
      <point x="183" y="590" type="curve" smooth="yes"/>
      <point x="303" y="590"/>
      <point x="359" y="656"/>
      <point x="378" y="746" type="curve" smooth="yes"/>
      <point x="380" y="756"/>
      <point x="375" y="765"/>
      <point x="363" y="765" type="curve" smooth="yes"/>
      <point x="269" y="765" type="line" smooth="yes"/>
      <point x="257" y="765"/>
      <point x="248" y="756"/>
    </contour>
  </outline>
</glyph>
<glyph name="afii10098" format="1">
  <advance width="530"/>
  <unicode hex="0491"/>
  <outline>
    <contour>
      <point x="120" y="520" type="line" name="hr00"/>
      <point x="105" y="520"/>
      <point x="90" y="508"/>
      <point x="87" y="493" type="curve" smooth="yes"/>
      <point x="-12" y="27" type="line" smooth="yes"/>
      <point x="-15" y="12"/>
      <point x="-5" y="0"/>
      <point x="10" y="0" type="curve" smooth="yes"/>
      <point x="185" y="0" type="line" smooth="yes"/>
      <point x="200" y="0"/>
      <point x="214" y="12"/>
      <point x="217" y="27" type="curve" smooth="yes"/>
      <point x="285" y="345" type="line"/>
      <point x="498" y="345" type="line" smooth="yes"/>
      <point x="513" y="345"/>
      <point x="527" y="357"/>
      <point x="531" y="372" type="curve" smooth="yes"/>
      <point x="580" y="603" type="line" smooth="yes"/>
      <point x="583" y="618"/>
      <point x="573" y="630"/>
      <point x="558" y="630" type="curve" smooth="yes"/>
      <point x="419" y="630" type="line" smooth="yes"/>
      <point x="404" y="630"/>
      <point x="390" y="618"/>
      <point x="387" y="603" type="curve" smooth="yes"/>
      <point x="369" y="520" type="line"/>
    </contour>
  </outline>
</glyph>
<glyph name="gimelhebrew" format="1">
  <advance width="589"/>
  <unicode hex="05D2"/>
  <outline>
    <contour>
      <point x="465" y="252" type="line" name="hr00"/>
      <point x="483" y="337" type="line" smooth="yes"/>
      <point x="523" y="526"/>
      <point x="397" y="581"/>
      <point x="222" y="581" type="curve" smooth="yes"/>
      <point x="146" y="581" type="line" smooth="yes"/>
      <point x="131" y="581"/>
      <point x="116" y="569"/>
      <point x="113" y="554" type="curve" smooth="yes"/>
      <point x="88" y="433" type="line" smooth="yes"/>
      <point x="84" y="418"/>
      <point x="94" y="406"/>
      <point x="109" y="406" type="curve" smooth="yes"/>
      <point x="190" y="406" type="line" smooth="yes"/>
      <point x="239" y="406"/>
      <point x="259" y="382"/>
      <point x="248" y="332" type="curve" smooth="yes"/>
      <point x="237" y="281" type="line"/>
      <point x="96" y="268"/>
      <point x="-17" y="157"/>
      <point x="-43" y="34" type="curve" smooth="yes"/>
      <point x="-48" y="14"/>
      <point x="-38" y="0"/>
      <point x="-23" y="0" type="curve" smooth="yes"/>
      <point x="156" y="0" type="line" smooth="yes"/>
      <point x="171" y="0"/>
      <point x="184" y="8"/>
      <point x="191" y="38" type="curve"/>
      <point x="200" y="77"/>
      <point x="227" y="104"/>
      <point x="275" y="105" type="curve"/>
      <point x="294" y="26" type="line" smooth="yes"/>
      <point x="298" y="12"/>
      <point x="301" y="0"/>
      <point x="316" y="0" type="curve" smooth="yes"/>
      <point x="491" y="0" type="line" smooth="yes"/>
      <point x="506" y="0"/>
      <point x="519" y="12"/>
      <point x="517" y="27" type="curve"/>
    </contour>
  </outline>
</glyph>
<glyph name="hehebrew" format="1">
  <advance width="667"/>
  <unicode hex="05D4"/>
  <outline>
    <contour>
      <point x="133" y="571" type="line" smooth="yes" name="hr00"/>
      <point x="118" y="571"/>
      <point x="103" y="559"/>
      <point x="100" y="544" type="curve" smooth="yes"/>
      <point x="74" y="423" type="line" smooth="yes"/>
      <point x="71" y="408"/>
      <point x="81" y="396"/>
      <point x="96" y="396" type="curve" smooth="yes"/>
      <point x="352" y="396" type="line" smooth="yes"/>
      <point x="401" y="396"/>
      <point x="420" y="371"/>
      <point x="410" y="321" type="curve" smooth="yes"/>
      <point x="347" y="26" type="line" smooth="yes"/>
      <point x="344" y="11"/>
      <point x="354" y="0"/>
      <point x="369" y="0" type="curve" smooth="yes"/>
      <point x="538" y="0" type="line" smooth="yes"/>
      <point x="553" y="0"/>
      <point x="567" y="12"/>
      <point x="570" y="27" type="curve" smooth="yes"/>
      <point x="632" y="317" type="line" smooth="yes"/>
      <point x="671" y="501"/>
      <point x="559" y="571"/>
      <point x="384" y="571" type="curve" smooth="yes"/>
    </contour>
    <contour>
      <point x="213" y="27" type="curve"/>
      <point x="277" y="329" type="line" smooth="yes"/>
      <point x="281" y="344"/>
      <point x="271" y="356"/>
      <point x="256" y="356" type="curve" smooth="yes"/>
      <point x="87" y="356" type="line" smooth="yes"/>
      <point x="72" y="356"/>
      <point x="58" y="344"/>
      <point x="54" y="329" type="curve" smooth="yes"/>
      <point x="-10" y="27" type="line" smooth="yes"/>
      <point x="-13" y="12"/>
      <point x="-3" y="0"/>
      <point x="12" y="0" type="curve" smooth="yes"/>
      <point x="181" y="0" type="line" smooth="yes"/>
      <point x="196" y="0"/>
      <point x="210" y="12"/>
    </contour>
  </outline>
</glyph>
<glyph name="hethebrew" format="1">
  <advance width="673"/>
  <unicode hex="05D7"/>
  <outline>
    <contour>
      <point x="133" y="571" type="line" smooth="yes" name="hr00"/>
      <point x="118" y="571"/>
      <point x="103" y="559"/>
      <point x="100" y="544" type="curve" smooth="yes"/>
      <point x="-10" y="27" type="line" smooth="yes"/>
      <point x="-13" y="12"/>
      <point x="-3" y="0"/>
      <point x="12" y="0" type="curve" smooth="yes"/>
      <point x="181" y="0" type="line" smooth="yes"/>
      <point x="196" y="0"/>
      <point x="210" y="12"/>
      <point x="213" y="27" type="curve" smooth="yes"/>
      <point x="292" y="396" type="line"/>
      <point x="357" y="396" type="line" smooth="yes"/>
      <point x="406" y="396"/>
      <point x="425" y="371"/>
      <point x="415" y="321" type="curve" smooth="yes"/>
      <point x="352" y="26" type="line" smooth="yes"/>
      <point x="349" y="11"/>
      <point x="359" y="0"/>
      <point x="374" y="0" type="curve" smooth="yes"/>
      <point x="543" y="0" type="line" smooth="yes"/>
      <point x="558" y="0"/>
      <point x="572" y="12"/>
      <point x="575" y="27" type="curve" smooth="yes"/>
      <point x="637" y="317" type="line" smooth="yes"/>
      <point x="679" y="513"/>
      <point x="569" y="571"/>
      <point x="389" y="571" type="curve" smooth="yes"/>
    </contour>
  </outline>
</glyph>
<glyph name="tethebrew" format="1">
  <advance width="663"/>
  <unicode hex="05D8"/>
  <outline>
    <contour>
      <point x="409" y="246" type="curve" smooth="yes" name="hr00"/>
      <point x="394" y="191"/>
      <point x="358" y="175"/>
      <point x="310" y="175" type="curve" smooth="yes"/>
      <point x="261" y="175"/>
      <point x="229" y="191"/>
      <point x="241" y="246" type="curve" smooth="yes"/>
      <point x="304" y="544" type="line" smooth="yes"/>
      <point x="307" y="559"/>
      <point x="298" y="571"/>
      <point x="283" y="571" type="curve" smooth="yes"/>
      <point x="125" y="571" type="line" smooth="yes"/>
      <point x="110" y="571"/>
      <point x="95" y="559"/>
      <point x="92" y="544" type="curve" smooth="yes"/>
      <point x="28" y="241" type="line" smooth="yes"/>
      <point x="-5" y="87"/>
      <point x="104" y="-10"/>
      <point x="291" y="-10" type="curve" smooth="yes"/>
      <point x="499" y="-10"/>
      <point x="578" y="81"/>
      <point x="618" y="232" type="curve" smooth="yes"/>
      <point x="623" y="252"/>
      <point x="635" y="308"/>
      <point x="638" y="328" type="curve" smooth="yes"/>
      <point x="661" y="476"/>
      <point x="576" y="581"/>
      <point x="402" y="581" type="curve" smooth="yes"/>
      <point x="394" y="581" type="line" smooth="yes"/>
      <point x="379" y="581"/>
      <point x="364" y="569"/>
      <point x="361" y="554" type="curve" smooth="yes"/>
      <point x="336" y="433" type="line" smooth="yes"/>
      <point x="332" y="418"/>
      <point x="342" y="406"/>
      <point x="357" y="406" type="curve" smooth="yes"/>
      <point x="359" y="406" type="line" smooth="yes"/>
      <point x="408" y="406"/>
      <point x="434" y="381"/>
      <point x="427" y="331" type="curve" smooth="yes"/>
      <point x="423" y="310"/>
      <point x="414" y="265"/>
    </contour>
  </outline>
</glyph>
<glyph name="samekhhebrew" format="1">
  <advance width="618"/>
  <unicode hex="05E1"/>
  <outline>
    <contour>
      <point x="363" y="571" type="curve" name="hr00"/>
      <point x="127" y="571" type="line" smooth="yes"/>
      <point x="112" y="571"/>
      <point x="97" y="559"/>
      <point x="94" y="544" type="curve" smooth="yes"/>
      <point x="30" y="242" type="line" smooth="yes"/>
      <point x="-3" y="88"/>
      <point x="78" y="-10"/>
      <point x="265" y="-10" type="curve" smooth="yes"/>
      <point x="473" y="-10"/>
      <point x="533" y="77"/>
      <point x="573" y="228" type="curve" smooth="yes"/>
      <point x="578" y="248"/>
      <point x="588" y="293"/>
      <point x="591" y="313" type="curve" smooth="yes"/>
      <point x="614" y="459"/>
      <point x="548" y="571"/>
    </contour>
    <contour>
      <point x="381" y="321" type="curve" smooth="yes"/>
      <point x="377" y="301"/>
      <point x="370" y="266"/>
      <point x="365" y="246" type="curve" smooth="yes"/>
      <point x="350" y="191"/>
      <point x="332" y="175"/>
      <point x="284" y="175" type="curve" smooth="yes"/>
      <point x="235" y="175"/>
      <point x="221" y="191"/>
      <point x="233" y="246" type="curve" smooth="yes"/>
      <point x="265" y="396" type="line"/>
      <point x="331" y="396" type="line" smooth="yes"/>
      <point x="380" y="396"/>
      <point x="388" y="371"/>
    </contour>
  </outline>
</glyph>
<glyph name="zeroinferior" format="1">
  <advance width="380"/>
  <unicode hex="2080"/>
  <outline>
    <contour>
      <point x="300" y="49" type="curve" smooth="yes" name="hr00"/>
      <point x="312" y="130"/>
      <point x="244" y="185"/>
      <point x="156" y="185" type="curve" smooth="yes"/>
      <point x="48" y="185"/>
      <point x="0" y="138"/>
      <point x="-22" y="57" type="curve" smooth="yes"/>
      <point x="-32" y="20"/>
      <point x="-39" y="-6"/>
      <point x="-43" y="-40" type="curve" smooth="yes"/>
      <point x="-54" y="-120"/>
      <point x="16" y="-175"/>
      <point x="99" y="-175" type="curve" smooth="yes"/>
      <point x="202" y="-175"/>
      <point x="256" y="-128"/>
      <point x="279" y="-48" type="curve" smooth="yes"/>
      <point x="289" y="-14"/>
      <point x="294" y="12"/>
    </contour>
    <contour>
      <point x="94" y="-37" type="curve" smooth="yes"/>
      <point x="97" y="-10"/>
      <point x="104" y="21"/>
      <point x="111" y="46" type="curve" smooth="yes"/>
      <point x="116" y="63"/>
      <point x="126" y="76"/>
      <point x="143" y="76" type="curve" smooth="yes"/>
      <point x="160" y="76"/>
      <point x="164" y="63"/>
      <point x="161" y="46" type="curve" smooth="yes"/>
      <point x="158" y="21"/>
      <point x="151" y="-10"/>
      <point x="144" y="-37" type="curve" smooth="yes"/>
      <point x="139" y="-54"/>
      <point x="129" y="-67"/>
      <point x="112" y="-67" type="curve" smooth="yes"/>
      <point x="95" y="-67"/>
      <point x="91" y="-54"/>
    </contour>
  </outline>
</glyph>
<glyph name="Dieresis" format="1">
  <advance width="497"/>
  <unicode hex="F6CB"/>
  <outline>
    <contour>
      <point x="354" y="920" type="line" smooth="yes" name="hr00"/>
      <point x="341" y="920"/>
      <point x="329" y="910"/>
      <point x="326" y="897" type="curve" smooth="yes"/>
      <point x="300" y="773" type="line" smooth="yes"/>
      <point x="297" y="760"/>
      <point x="305" y="750"/>
      <point x="318" y="750" type="curve" smooth="yes"/>
      <point x="442" y="750" type="line" smooth="yes"/>
      <point x="455" y="750"/>
      <point x="467" y="760"/>
      <point x="470" y="773" type="curve" smooth="yes"/>
      <point x="496" y="897" type="line" smooth="yes"/>
      <point x="499" y="910"/>
      <point x="491" y="920"/>
      <point x="478" y="920" type="curve" smooth="yes"/>
    </contour>
    <contour>
      <point x="85" y="920" type="line" smooth="yes"/>
      <point x="72" y="920"/>
      <point x="60" y="910"/>
      <point x="57" y="897" type="curve" smooth="yes"/>
      <point x="31" y="773" type="line" smooth="yes"/>
      <point x="28" y="760"/>
      <point x="36" y="750"/>
      <point x="49" y="750" type="curve" smooth="yes"/>
      <point x="173" y="750" type="line" smooth="yes"/>
      <point x="186" y="750"/>
      <point x="198" y="760"/>
      <point x="201" y="773" type="curve" smooth="yes"/>
      <point x="227" y="897" type="line" smooth="yes"/>
      <point x="230" y="910"/>
      <point x="222" y="920"/>
      <point x="209" y="920" type="curve" smooth="yes"/>
    </contour>
  </outline>
</glyph>
<glyph name="Hungarumlaut" format="1">
  <advance width="579"/>
  <unicode hex="F6CF"/>
  <outline>
    <contour>
      <point x="40" y="781" type="line" smooth="yes" name="hr00"/>
      <point x="37" y="777"/>
      <point x="32" y="771"/>
      <point x="31" y="766" type="curve" smooth="yes"/>
      <point x="29" y="756"/>
      <point x="34" y="750"/>
      <point x="44" y="750" type="curve" smooth="yes"/>
      <point x="147" y="750" type="line" smooth="yes"/>
      <point x="160" y="750"/>
      <point x="174" y="755"/>
      <point x="184" y="764" type="curve" smooth="yes"/>
      <point x="324" y="888" type="line" smooth="yes"/>
      <point x="328" y="891"/>
      <point x="332" y="896"/>
      <point x="333" y="901" type="curve" smooth="yes"/>
      <point x="336" y="913"/>
      <point x="329" y="920"/>
      <point x="317" y="920" type="curve" smooth="yes"/>
      <point x="160" y="920" type="line" smooth="yes"/>
      <point x="139" y="920"/>
      <point x="128" y="914"/>
      <point x="119" y="901" type="curve" smooth="yes"/>
    </contour>
    <contour>
      <point x="285" y="781" type="line" smooth="yes"/>
      <point x="282" y="777"/>
      <point x="277" y="771"/>
      <point x="276" y="766" type="curve" smooth="yes"/>
      <point x="274" y="756"/>
      <point x="279" y="750"/>
      <point x="289" y="750" type="curve" smooth="yes"/>
      <point x="392" y="750" type="line" smooth="yes"/>
      <point x="405" y="750"/>
      <point x="419" y="755"/>
      <point x="429" y="764" type="curve" smooth="yes"/>
      <point x="569" y="888" type="line" smooth="yes"/>
      <point x="573" y="891"/>
      <point x="577" y="896"/>
      <point x="578" y="901" type="curve" smooth="yes"/>
      <point x="581" y="913"/>
      <point x="574" y="920"/>
      <point x="562" y="920" type="curve" smooth="yes"/>
      <point x="405" y="920" type="line" smooth="yes"/>
      <point x="384" y="920"/>
      <point x="373" y="914"/>
      <point x="364" y="901" type="curve" smooth="yes"/>
    </contour>
  </outline>
</glyph>
<glyph name="shindageshshindothebrew" format="1">
  <advance width="873"/>
  <unicode hex="FB2C"/>
  <outline>
    <contour>
      <point x="575" y="240" type="line" smooth="yes" name="hr00"/>
      <point x="590" y="240"/>
      <point x="604" y="252"/>
      <point x="607" y="267" type="curve" smooth="yes"/>
      <point x="615" y="302" type="line" smooth="yes"/>
      <point x="618" y="317"/>
      <point x="608" y="329"/>
      <point x="593" y="329" type="curve" smooth="yes"/>
      <point x="558" y="329" type="line" smooth="yes"/>
      <point x="543" y="329"/>
      <point x="529" y="317"/>
      <point x="526" y="302" type="curve" smooth="yes"/>
      <point x="518" y="267" type="line" smooth="yes"/>
      <point x="515" y="252"/>
      <point x="525" y="240"/>
      <point x="540" y="240" type="curve" smooth="yes"/>
    </contour>
    <contour>
      <point x="813" y="611" type="line" smooth="yes"/>
      <point x="828" y="611"/>
      <point x="843" y="623"/>
      <point x="846" y="638" type="curve" smooth="yes"/>
      <point x="854" y="673" type="line" smooth="yes"/>
      <point x="857" y="688"/>
      <point x="847" y="700"/>
      <point x="832" y="700" type="curve" smooth="yes"/>
      <point x="797" y="700" type="line" smooth="yes"/>
      <point x="782" y="700"/>
      <point x="768" y="688"/>
      <point x="765" y="673" type="curve" smooth="yes"/>
      <point x="757" y="638" type="line" smooth="yes"/>
      <point x="754" y="623"/>
      <point x="763" y="611"/>
      <point x="778" y="611" type="curve" smooth="yes"/>
    </contour>
    <component base="shinhebrew"/>
  </outline>
</glyph>
<glyph name="gimeldageshhebrew" format="1">
  <advance width="589"/>
  <unicode hex="FB32"/>
  <outline>
    <contour>
      <point x="149" y="291" type="line" smooth="yes" name="hr00"/>
      <point x="164" y="291"/>
      <point x="179" y="303"/>
      <point x="182" y="318" type="curve" smooth="yes"/>
      <point x="190" y="353" type="line" smooth="yes"/>
      <point x="193" y="368"/>
      <point x="183" y="380"/>
      <point x="168" y="380" type="curve" smooth="yes"/>
      <point x="133" y="380" type="line" smooth="yes"/>
      <point x="118" y="380"/>
      <point x="104" y="368"/>
      <point x="101" y="353" type="curve" smooth="yes"/>
      <point x="93" y="318" type="line" smooth="yes"/>
      <point x="90" y="303"/>
      <point x="99" y="291"/>
      <point x="114" y="291" type="curve" smooth="yes"/>
    </contour>
    <component base="gimelhebrew"/>
  </outline>
</glyph>
<glyph name="yoddageshhebrew" format="1">
  <advance width="417"/>
  <unicode hex="FB39"/>
  <outline>
    <contour>
      <point x="66" y="240" type="line" smooth="yes" name="hr00"/>
      <point x="81" y="240"/>
      <point x="95" y="252"/>
      <point x="98" y="267" type="curve" smooth="yes"/>
      <point x="106" y="302" type="line" smooth="yes"/>
      <point x="109" y="317"/>
      <point x="99" y="329"/>
      <point x="84" y="329" type="curve" smooth="yes"/>
      <point x="49" y="329" type="line" smooth="yes"/>
      <point x="34" y="329"/>
      <point x="20" y="317"/>
      <point x="17" y="302" type="curve" smooth="yes"/>
      <point x="9" y="267" type="line" smooth="yes"/>
      <point x="6" y="252"/>
      <point x="16" y="240"/>
      <point x="31" y="240" type="curve" smooth="yes"/>
    </contour>
    <component base="yodhebrew" xOffset="95"/>
  </outline>
</glyph>
<glyph name="memdageshhebrew" format="1">
  <advance width="719"/>
  <unicode hex="FB3E"/>
  <outline>
    <contour>
      <point x="404" y="240" type="line" smooth="yes" name="hr00"/>
      <point x="419" y="240"/>
      <point x="433" y="252"/>
      <point x="436" y="267" type="curve" smooth="yes"/>
      <point x="444" y="302" type="line" smooth="yes"/>
      <point x="447" y="317"/>
      <point x="437" y="329"/>
      <point x="422" y="329" type="curve" smooth="yes"/>
      <point x="387" y="329" type="line" smooth="yes"/>
      <point x="372" y="329"/>
      <point x="358" y="317"/>
      <point x="355" y="302" type="curve" smooth="yes"/>
      <point x="347" y="267" type="line" smooth="yes"/>
      <point x="344" y="252"/>
      <point x="354" y="240"/>
      <point x="369" y="240" type="curve" smooth="yes"/>
    </contour>
    <component base="memhebrew"/>
  </outline>
</glyph>
<glyph name="qofdageshhebrew" format="1">
  <advance width="696"/>
  <unicode hex="FB47"/>
  <outline>
    <contour>
      <point x="353" y="240" type="line" smooth="yes" name="hr00"/>
      <point x="368" y="240"/>
      <point x="382" y="252"/>
      <point x="385" y="267" type="curve" smooth="yes"/>
      <point x="393" y="302" type="line" smooth="yes"/>
      <point x="396" y="317"/>
      <point x="386" y="329"/>
      <point x="371" y="329" type="curve" smooth="yes"/>
      <point x="336" y="329" type="line" smooth="yes"/>
      <point x="321" y="329"/>
      <point x="307" y="317"/>
      <point x="304" y="302" type="curve" smooth="yes"/>
      <point x="296" y="267" type="line" smooth="yes"/>
      <point x="293" y="252"/>
      <point x="303" y="240"/>
      <point x="318" y="240" type="curve" smooth="yes"/>
    </contour>
    <component base="qofhebrew"/>
  </outline>
</glyph>
<glyph name="seven.otlf" format="1">
  <advance width="700"/>
  <outline>
    <contour>
      <point x="177" y="700" type="line" smooth="yes" name="hr00"/>
      <point x="162" y="700"/>
      <point x="148" y="688"/>
      <point x="145" y="673" type="curve" smooth="yes"/>
      <point x="112" y="522" type="line" smooth="yes"/>
      <point x="109" y="507"/>
      <point x="119" y="495"/>
      <point x="134" y="495" type="curve" smooth="yes"/>
      <point x="399" y="495" type="line"/>
      <point x="84" y="31" type="line"/>
      <point x="74" y="13"/>
      <point x="79" y="0"/>
      <point x="98" y="0" type="curve" smooth="yes"/>
      <point x="301" y="0" type="line" smooth="yes"/>
      <point x="326" y="0"/>
      <point x="341" y="16"/>
      <point x="346" y="23" type="curve" smooth="yes"/>
      <point x="664" y="490" type="line" smooth="yes"/>
      <point x="672" y="503"/>
      <point x="683" y="518"/>
      <point x="687" y="541" type="curve"/>
      <point x="716" y="673" type="line" smooth="yes"/>
      <point x="719" y="688"/>
      <point x="710" y="700"/>
      <point x="694" y="700" type="curve" smooth="yes"/>
    </contour>
  </outline>
</glyph>
